<?xml version="1.0" encoding="UTF-8"?>
<svg version="1.1" xmlns="http://www.w3.org/2000/svg" width="318" height="258">
<path d="M0 0 C4.2057436 0.00452265 8.41144399 0.0045968 12.6171875 0 C25.98012452 -0.01452006 39.34212098 0.01215087 52.70475006 0.10826111 C54.78235455 0.12316746 56.85996643 0.13707201 58.93758392 0.15003967 C65.11670565 0.18997529 71.29487297 0.25242421 77.47340202 0.34744644 C79.38529433 0.37427728 81.29728913 0.3946909 83.20932198 0.40819931 C85.8462643 0.42858019 88.48167242 0.47378523 91.11816406 0.52539062 C91.8822225 0.52622776 92.64628094 0.5270649 93.43349266 0.5279274 C99.93282809 0.70161371 105.0574756 2.82459207 110.02856445 7.02490234 C110.56739258 7.65783203 111.1062207 8.29076172 111.66137695 8.94287109 C112.49282227 9.88066406 112.49282227 9.88066406 113.34106445 10.83740234 C117.33664454 17.17633615 117.07849918 24.01451935 117.06103516 31.26293945 C117.06614609 32.36301834 117.07125702 33.46309723 117.07652283 34.59651184 C117.09038583 38.22113535 117.08946459 41.84556803 117.0871582 45.47021484 C117.09104672 47.99695404 117.09538171 50.52369259 117.10014343 53.0504303 C117.10759842 58.34199412 117.10745833 63.63348831 117.10205078 68.92504883 C117.09601122 75.0264136 117.10832703 81.12754775 117.12962085 87.22887319 C117.1494109 93.11765207 117.15240476 99.00635996 117.14888573 104.89517403 C117.14939838 107.39217228 117.15462556 109.88917427 117.16469765 112.38615227 C117.17706389 115.88041728 117.17026883 119.37415139 117.15869141 122.8684082 C117.16633514 123.89463287 117.17397888 124.92085754 117.18185425 125.97817993 C117.12907371 133.20259691 116.30534093 139.03564393 111.59887695 144.81787109 C103.88438258 151.1608998 98.10985713 153.24514393 88.01322937 153.27081299 C87.35700098 153.27378411 86.7007726 153.27675523 86.0246585 153.27981639 C83.8393425 153.28844504 81.65408165 153.29000665 79.46875 153.29150391 C77.89627975 153.29613616 76.32381062 153.30116136 74.75134277 153.30654907 C70.48883343 153.31963445 66.22633982 153.32611028 61.96381354 153.33055973 C59.29795926 153.33349624 56.63210923 153.3376021 53.9662571 153.3420639 C45.61710242 153.35572765 37.26795751 153.36540022 28.91879243 153.36926579 C19.29598453 153.3737462 9.67331869 153.39129801 0.05055398 153.42026639 C-7.39848122 153.44190927 -14.84747652 153.45197144 -22.29654282 153.45330691 C-26.74071772 153.45435292 -31.18475886 153.46021738 -35.62890053 153.47812653 C-39.81093181 153.49465273 -43.99272942 153.49674075 -48.1747818 153.48798752 C-49.7045549 153.48721962 -51.23434081 153.49152712 -52.76408195 153.50144577 C-63.49670533 153.56692199 -72.5113832 153.0112119 -81.21362305 146.13037109 C-85.44842435 141.54266968 -87.45121769 137.33595152 -87.49450684 131.07868958 C-87.50592712 130.08498352 -87.51734741 129.09127747 -87.52911377 128.06745911 C-87.53134949 126.98840805 -87.53358521 125.90935699 -87.53588867 124.79760742 C-87.54581848 123.65226532 -87.55574829 122.50692322 -87.565979 121.32687378 C-87.59518209 117.53869214 -87.60882013 113.75067805 -87.61987305 109.96240234 C-87.6313802 107.32549537 -87.64289562 104.68858843 -87.65441895 102.05168152 C-87.67354622 97.22767669 -87.68534889 92.40370785 -87.69141245 87.57966977 C-87.70036214 80.50012983 -87.73541076 73.42136446 -87.79341364 66.34205991 C-87.84203156 60.19269833 -87.85730952 54.043654 -87.86076355 47.89410973 C-87.86680385 45.28708368 -87.88281795 42.68006039 -87.90913391 40.07316017 C-87.9433927 36.41821914 -87.9394627 32.76514557 -87.92651367 29.11010742 C-87.94494324 28.04117752 -87.9633728 26.97224762 -87.98236084 25.8709259 C-87.89928516 18.35415398 -86.02147805 12.98414869 -81.21362305 7.13037109 C-73.98143157 1.33302927 -67.51231132 0.87269259 -58.4987793 0.57568359 C-57.23695328 0.533638 -55.97512726 0.49159241 -54.67506409 0.44827271 C-36.45649626 -0.10816716 -18.22500763 -0.01974335 0 0 Z " fill="#FDFDFD" transform="translate(98.213623046875,98.86962890625)"/>
<path d="M0 0 C0.66 0 1.32 0 2 0 C2.97986787 2.93960362 3.24619506 5.21830543 3.44847107 8.2950592 C3.5226828 9.39437271 3.59689453 10.49368622 3.6733551 11.62631226 C3.75077438 12.83381134 3.82819366 14.04131042 3.90795898 15.28540039 C3.99267456 16.55771011 4.07739014 17.83001984 4.16467285 19.1408844 C4.39770871 22.64264591 4.62576065 26.14471638 4.85289264 29.64686513 C5.09346155 33.34405653 5.33838944 37.04095932 5.58277893 40.73789978 C5.9947784 46.9797977 6.40379115 53.2218855 6.81079102 59.46411133 C7.32595649 67.36510727 7.84574497 75.26579123 8.36718655 83.16637516 C8.82177983 90.05455081 9.27425369 96.94286551 9.72636914 103.83120418 C9.86818699 105.99089031 10.01024986 108.15056023 10.15234184 110.31022835 C11.52568925 131.20171664 12.79471161 152.0981477 14 173 C9.59399702 171.37880146 6.71256987 169.17368092 3.375 165.9375 C-0.45384421 162.32133654 -4.3200279 158.85406627 -8.4375 155.5625 C-13.21621628 151.71889943 -17.69157687 147.63039836 -22.16381836 143.44165039 C-25.51099327 140.32446055 -28.93005023 137.36426202 -32.5 134.5 C-37.26188842 130.6794151 -41.71435594 126.60932197 -46.16625977 122.43920898 C-49.491548 119.34219916 -52.88719939 116.40378316 -56.4375 113.5625 C-61.63579706 109.3977377 -66.48568568 104.9181449 -71.31811523 100.34008789 C-71.88344971 99.80633545 -72.44878418 99.27258301 -73.03125 98.72265625 C-73.53205078 98.24578369 -74.03285156 97.76891113 -74.54882812 97.27758789 C-76.18291912 95.78165971 -76.18291912 95.78165971 -79 94 C-78.40670323 90.63304084 -77.30023359 88.87756895 -75 86.375 C-74.36835938 85.67761719 -73.73671875 84.98023438 -73.0859375 84.26171875 C-72.05339844 83.14216797 -72.05339844 83.14216797 -71 82 C-66.41265331 76.9705999 -61.89709293 71.92697247 -57.625 66.625 C-53.94363311 62.07139288 -50.07225527 57.76417484 -46.08642578 53.48095703 C-43.09587359 50.24823796 -40.26228315 46.93312334 -37.5 43.5 C-34.30066303 39.52368119 -30.9739272 35.7335424 -27.5 32 C-23.30140014 27.48271124 -19.34799457 22.82013575 -15.47265625 18.0234375 C-12.38282128 14.24534545 -9.23656836 10.51994094 -6.0625 6.8125 C-5.49418457 6.13985107 -4.92586914 5.46720215 -4.34033203 4.77416992 C-2.93737302 3.14401878 -1.47358025 1.56660397 0 0 Z " fill="#F6F6F6" transform="translate(296,72)"/>
<path d="M0 0 C9.20938872 6.46682964 16.27572222 16.8396453 19.07421875 27.75 C21.10876206 40.9933699 19.72341286 53.38245238 12.30859375 64.74609375 C4.50294252 75.07076618 -5.35157583 81.84084532 -18.203125 84.21484375 C-32.19552778 85.92529027 -43.97669758 82.54339037 -55.50390625 74.49609375 C-64.0943776 67.69730358 -70.39024507 57.09673478 -71.80517578 46.16943359 C-71.93958394 43.81109117 -71.971854 41.48296911 -71.94140625 39.12109375 C-71.93383301 38.29109863 -71.92625977 37.46110352 -71.91845703 36.60595703 C-71.6322511 25.90770451 -67.90878 17.95052709 -61.50390625 9.49609375 C-61.02953125 8.85671875 -60.55515625 8.21734375 -60.06640625 7.55859375 C-56.49149157 3.05109263 -52.61531834 0.10579358 -47.50390625 -2.50390625 C-46.77171875 -2.89835938 -46.03953125 -3.2928125 -45.28515625 -3.69921875 C-30.94474727 -10.18870762 -13.15478882 -7.90108221 0 0 Z " fill="#F8F8F8" transform="translate(170.50390625,13.50390625)"/>
<path d="M0 0 C5.97279223 4.66937714 10.67909617 12.38175653 12.1875 19.8125 C13.36385078 30.49115097 11.68869601 39.24643495 5.578125 48.16015625 C-0.02432005 55.03471612 -6.9438631 59.65640983 -15.8125 60.8125 C-25.91355281 61.81336651 -34.36449527 59.57477727 -42.625 53.625 C-50.29561585 47.19158025 -54.17671717 39.885584 -55.0625 30.03125 C-55.44338792 20.79471785 -53.25251679 11.84746739 -47.48828125 4.44140625 C-34.15763807 -8.51635181 -15.52430577 -9.78336994 0 0 Z " fill="#F5F5F5" transform="translate(74.8125,37.1875)"/>
<path d="M0 0 C0.66 0.33 1.32 0.66 2 1 C-0.97 4.3 -3.94 7.6 -7 11 C-7 7.22089522 -6.00296038 6.53893899 -3.5 3.8125 C-2.8503125 3.09707031 -2.200625 2.38164062 -1.53125 1.64453125 C-1.0259375 1.10183594 -0.520625 0.55914063 0 0 Z " fill="#8B8B8B" transform="translate(115,16)"/>
<path d="M0 0 C0.66 0.33 1.32 0.66 2 1 C-0.64 3.64 -3.28 6.28 -6 9 C-6 6 -6 6 -3.5625 3.375 C-2.716875 2.59125 -1.87125 1.8075 -1 1 C-0.67 0.67 -0.34 0.34 0 0 Z " fill="#9E9E9E" transform="translate(21,103)"/>
<path d="M0 0 C0.33 0.66 0.66 1.32 1 2 C-0.98 4.31 -2.96 6.62 -5 9 C-5.66 8.67 -6.32 8.34 -7 8 C-4.69 5.36 -2.38 2.72 0 0 Z " fill="#9C9C9C" transform="translate(280,91)"/>
<path d="M0 0 C0.33 0.99 0.66 1.98 1 3 C-0.65 4.65 -2.3 6.3 -4 8 C-4.66 7.67 -5.32 7.34 -6 7 C-4.02 4.69 -2.04 2.38 0 0 Z " fill="#9B9B9B" transform="translate(258,116)"/>
</svg>
